<?xml version="1.0" encoding="UTF-8" standalone="no"?>
<svg
   xmlns:dc="http://purl.org/dc/elements/1.1/"
   xmlns:cc="http://creativecommons.org/ns#"
   xmlns:rdf="http://www.w3.org/1999/02/22-rdf-syntax-ns#"
   xmlns:svg="http://www.w3.org/2000/svg"
   xmlns="http://www.w3.org/2000/svg"
   viewBox="0 0 106 114"
   height="114"
   width="106"
   version="1.1"
   id="svg3336">
  <metadata
     id="metadata3342">
    <rdf:RDF>
      <cc:Work
         rdf:about="">
        <dc:format>image/svg+xml</dc:format>
        <dc:type
           rdf:resource="http://purl.org/dc/dcmitype/StillImage" />
        <dc:title></dc:title>
      </cc:Work>
    </rdf:RDF>
  </metadata>
  <defs
     id="defs3340" />
  <path
     id="path5717"
     d="M 49.002105,110.48566 C 39.285038,106.75815 31.384691,102.74942 24.408427,98.00656 22.40281,96.64302 20.626083,95.64688 19.540279,95.27717 14.824474,93.67149 10.614942,91.4804 8.2653005,89.40849 L 6.9230535,88.2249 5.2948705,81.15031 c -3.444974,-14.9687 -3.44785,-16.9418 -0.02576,-17.67383 l 0.694827,-0.14863 0,-18.85099 0,-18.85098 1.732126,-2.05217 C 18.135159,11.205771 32.165699,3.7781441 47.653545,2.4206191 c 4.0292,-0.353163 10.847466,-0.161023 14.528196,0.409409 13.934602,2.1595541 26.806974,9.5025049 36.031325,20.5538119 l 1.994654,2.3897 0,18.77716 0,18.77715 0.69482,0.15463 c 1.43409,0.31915 1.59468,0.41528 2.00343,1.19939 0.56927,1.09201 0.50591,4.10501 -0.15768,7.49885 -0.2853,1.45914 -1.18957,5.59261 -2.00948,9.18548 -1.469875,6.44106 -1.504355,6.54661 -2.463735,7.54137 -2.060512,2.13649 -6.323897,4.47516 -11.458566,6.28556 -1.32017,0.46548 -2.877694,1.2088 -3.461162,1.65183 -3.53828,2.68664 -9.032689,5.90104 -15.107824,8.83856 -4.614208,2.23112 -13.568442,5.88215 -14.871945,6.06394 -0.552972,0.0771 -1.884725,-0.30711 -4.37347,-1.2618 z"
     style="fill:#53a746;fill-opacity:1" />
  <g
     style="fill:#ffffff"
     id="g5385"
     transform="matrix(0.53874187,0,0,-0.53874187,-348.42939,375.56593)">
    <g
       style="fill:#ffffff"
       id="g3536"
       transform="translate(761.328,563.0386)">
      <path
         d="m 0,0 c -0.667,0.462 -1.392,0.692 -2.175,0.692 -1.31,0 -2.351,-0.489 -3.127,-1.469 -0.971,-1.235 -1.457,-2.827 -1.457,-4.776 0,-1.951 0.452,-3.494 1.359,-4.629 0.782,-0.972 1.816,-1.458 3.101,-1.458 1.294,0 2.328,0.486 3.103,1.458 0.914,1.159 1.371,2.711 1.371,4.653 0,1.365 -0.196,2.513 -0.587,3.444 C 1.197,-1.156 0.668,-0.46 0,0"
         style="fill:#ffffff;fill-opacity:1;fill-rule:nonzero;stroke:none"
         id="path3538" />
    </g>
    <g
       style="fill:#ffffff"
       id="g3540"
       transform="translate(723.6191,562.3913)">
      <path
         d="m 0,0 c -0.235,0.324 -0.569,0.565 -1.002,0.722 -0.433,0.156 -1.139,0.234 -2.119,0.234 l -2.842,0 0,-4.455 2.558,0 c 1.005,0 1.757,0.092 2.255,0.277 0.499,0.185 0.874,0.451 1.125,0.797 0.252,0.344 0.377,0.765 0.377,1.258 C 0.352,-0.714 0.234,-0.326 0,0"
         style="fill:#ffffff;fill-opacity:1;fill-rule:nonzero;stroke:none"
         id="path3542" />
    </g>
    <g
       style="fill:#ffffff"
       id="g3544"
       transform="translate(698.4349,556.9041)">
      <path
         d="M 0,0 3.423,0 1.755,4.729 0,0 Z"
         style="fill:#ffffff;fill-opacity:1;fill-rule:nonzero;stroke:none"
         id="path3546" />
    </g>
    <g
       style="fill:#ffffff"
       id="g3548"
       transform="translate(804.1166,556.9041)">
      <path
         d="M 0,0 3.424,0 1.755,4.729 0,0 Z"
         style="fill:#ffffff;fill-opacity:1;fill-rule:nonzero;stroke:none"
         id="path3550" />
    </g>
    <g
       style="fill:#ffffff"
       id="g3552"
       transform="translate(815.6323,548.9553)">
      <path
         d="m 0,0 -8.156,0 0,2.382 0.494,0.012 c 0.453,0 0.77,0.06 0.952,0.18 0.181,0.119 0.272,0.265 0.272,0.437 0,0.148 -0.079,0.453 -0.234,0.914 l -0.515,1.568 -5.241,0 -0.646,-1.74 c -0.133,-0.37 -0.198,-0.614 -0.198,-0.729 0,-0.132 0.047,-0.251 0.142,-0.358 0.094,-0.107 0.249,-0.185 0.463,-0.235 0.14,-0.032 0.527,-0.049 1.162,-0.049 l 0,-2.382 -6.673,0 0,2.382 c 0.428,0 0.741,0.037 0.939,0.111 0.198,0.075 0.359,0.186 0.487,0.334 0.128,0.148 0.27,0.424 0.427,0.827 l 5.326,13.565 3.872,0 5.174,-13.294 C -1.673,3.217 -1.422,2.781 -1.205,2.617 -0.986,2.452 -0.586,2.374 0,2.382 L 0,0 Z m -18.936,14.837 -0.767,0 c -0.445,0 -0.739,-0.039 -0.884,-0.117 -0.143,-0.079 -0.25,-0.203 -0.32,-0.37 -0.07,-0.169 -0.105,-0.492 -0.105,-0.97 l 0,-9.529 c 0,-0.518 0.029,-0.852 0.085,-1 0.058,-0.148 0.157,-0.254 0.298,-0.321 0.173,-0.099 0.432,-0.148 0.778,-0.148 l 0.915,0 0,-2.382 -8.416,0 0,2.382 0.684,0 c 0.488,0 0.807,0.035 0.957,0.105 0.149,0.07 0.259,0.181 0.329,0.334 0.071,0.152 0.106,0.454 0.106,0.906 l 0,9.567 c 0,0.535 -0.035,0.887 -0.106,1.056 -0.07,0.167 -0.188,0.297 -0.354,0.388 -0.116,0.066 -0.398,0.099 -0.845,0.099 l -0.771,0 0,2.382 8.416,0 0,-2.382 z m -9.708,0 c -0.552,0 -0.923,-0.062 -1.113,-0.186 -0.288,-0.189 -0.576,-0.65 -0.864,-1.381 L -35.787,0 l -3.881,0 -5.251,13.355 c -0.214,0.535 -0.379,0.877 -0.495,1.025 -0.115,0.148 -0.277,0.264 -0.487,0.346 -0.211,0.082 -0.517,0.119 -0.921,0.111 l 0,2.382 8.193,0 0,-2.382 -0.26,0 c -0.518,0 -0.85,-0.021 -0.995,-0.062 -0.144,-0.041 -0.265,-0.128 -0.364,-0.259 -0.098,-0.131 -0.148,-0.268 -0.148,-0.407 0,-0.173 0.094,-0.527 0.283,-1.062 l 3.055,-8.576 3.251,8.797 c 0.157,0.437 0.235,0.737 0.235,0.902 0,0.23 -0.076,0.399 -0.229,0.506 -0.152,0.108 -0.48,0.161 -0.983,0.161 l -0.533,0 0,2.382 6.673,0 0,-2.382 z M -48.508,3.95 c -0.774,-1.358 -1.844,-2.405 -3.207,-3.141 -1.363,-0.737 -3.009,-1.106 -4.938,-1.106 -2.544,0 -4.63,0.7 -6.252,2.099 -1.961,1.687 -2.941,3.942 -2.941,6.764 0,2.625 0.859,4.774 2.577,6.443 1.718,1.671 3.964,2.506 6.741,2.506 2.735,0 4.949,-0.83 6.642,-2.493 1.693,-1.662 2.54,-3.798 2.54,-6.407 0,-1.752 -0.387,-3.307 -1.162,-4.665 m -18.803,10.887 -0.786,0 c -0.393,0 -0.674,-0.046 -0.841,-0.137 -0.169,-0.09 -0.286,-0.213 -0.351,-0.37 -0.065,-0.156 -0.098,-0.493 -0.098,-1.011 l 0,-13.319 -3.548,0 -6.4,12.689 0,-8.875 c 0,-0.51 0.031,-0.835 0.091,-0.975 0.062,-0.14 0.173,-0.251 0.333,-0.333 0.159,-0.083 0.435,-0.124 0.828,-0.124 l 0.823,0 0,-2.382 -7.13,0 0,2.382 0.738,0 c 0.408,0 0.689,0.035 0.841,0.105 0.151,0.07 0.271,0.192 0.362,0.364 0.09,0.173 0.135,0.433 0.135,0.777 l 0,9.875 c 0,0.379 -0.041,0.656 -0.122,0.833 -0.082,0.178 -0.193,0.305 -0.333,0.384 -0.138,0.078 -0.372,0.117 -0.699,0.117 l -0.922,0 0,2.382 6.994,0 5.055,-10.048 0,6.148 c 0,0.526 -0.029,0.855 -0.086,0.987 -0.083,0.198 -0.194,0.335 -0.334,0.414 -0.14,0.078 -0.412,0.117 -0.816,0.117 l -0.84,0 0,2.382 7.106,0 0,-2.382 z M -85.482,0 l -5.525,0 -5.536,7.418 -1.434,0 0,-3.432 c 0,-0.591 0.033,-0.968 0.099,-1.129 0.067,-0.16 0.171,-0.28 0.316,-0.357 0.144,-0.078 0.434,-0.118 0.87,-0.118 l 0.791,0 0,-2.382 -8.439,0 0,2.382 0.77,0 c 0.406,0 0.695,0.043 0.864,0.13 0.17,0.086 0.296,0.216 0.379,0.388 0.042,0.099 0.063,0.408 0.063,0.926 l 0,9.69 c 0,0.378 -0.032,0.648 -0.093,0.808 -0.063,0.161 -0.164,0.266 -0.305,0.315 -0.199,0.09 -0.427,0.136 -0.684,0.136 l -0.348,-0.012 -0.646,0 0,2.456 10.634,0 c 0.685,0 1.434,-0.062 2.245,-0.185 0.812,-0.124 1.547,-0.395 2.201,-0.815 0.656,-0.419 1.166,-0.951 1.529,-1.592 0.361,-0.641 0.543,-1.366 0.543,-2.172 0,-1.309 -0.468,-2.369 -1.403,-3.179 -0.934,-0.81 -2.041,-1.339 -3.317,-1.586 l 3.546,-4.123 0.148,-0.184 c 0.231,-0.28 0.442,-0.489 0.631,-0.624 0.189,-0.136 0.378,-0.232 0.568,-0.29 0.19,-0.058 0.453,-0.087 0.792,-0.087 l 0.741,0 0,-2.382 z m -20.2,0 -8.156,0 0,2.382 0.494,0.012 c 0.454,0 0.771,0.06 0.953,0.18 0.18,0.119 0.271,0.265 0.271,0.437 0,0.148 -0.078,0.453 -0.234,0.914 l -0.515,1.568 -5.241,0 -0.646,-1.74 c -0.133,-0.37 -0.198,-0.614 -0.198,-0.729 0,-0.132 0.047,-0.251 0.142,-0.358 0.094,-0.107 0.249,-0.185 0.463,-0.235 0.14,-0.032 0.527,-0.049 1.162,-0.049 l 0,-2.382 -6.673,0 0,2.382 c 0.428,0 0.741,0.037 0.939,0.111 0.198,0.075 0.359,0.186 0.487,0.334 0.128,0.148 0.27,0.424 0.427,0.827 l 5.327,13.565 3.872,0 5.173,-13.294 c 0.28,-0.708 0.53,-1.144 0.748,-1.308 0.218,-0.165 0.621,-0.243 1.205,-0.235 l 0,-2.382 z m -21.337,12.924 c -0.437,0.6 -0.939,1.074 -1.508,1.418 -0.428,0.264 -0.853,0.396 -1.273,0.396 -0.198,0 -0.334,-0.047 -0.408,-0.142 -0.075,-0.094 -0.111,-0.31 -0.111,-0.648 l 0,-9.899 c 0,-0.585 0.021,-0.951 0.062,-1.099 0.042,-0.149 0.112,-0.265 0.212,-0.352 0.099,-0.086 0.235,-0.144 0.41,-0.173 0.173,-0.029 0.637,-0.043 1.392,-0.043 l 0,-2.382 -8.415,0 0,2.382 0.508,0 c 0.565,0 0.925,0.035 1.083,0.105 0.157,0.07 0.277,0.194 0.36,0.37 0.082,0.177 0.125,0.546 0.125,1.105 l 0,10.121 c 0,0.288 -0.033,0.47 -0.099,0.544 -0.067,0.073 -0.206,0.111 -0.421,0.111 -0.428,0 -0.906,-0.16 -1.433,-0.481 -0.527,-0.321 -0.997,-0.774 -1.409,-1.359 -0.164,-0.23 -0.515,-0.876 -1.05,-1.937 l -2.262,0.802 2.125,6.037 1.633,0 0.172,-0.581 9.713,0 0.21,0.581 1.644,0 2.138,-6.037 -2.299,-0.802 c -0.511,1.004 -0.878,1.658 -1.099,1.963 m -28.366,12.331 6.973,-33.134 156.504,0 6.276,33.134 -169.753,0 z"
         style="fill:#ffffff;fill-opacity:1;fill-rule:nonzero;stroke:none"
         id="path3554" />
    </g>
    <g
       style="fill:#ffffff"
       id="g3556"
       transform="translate(727.3187,526.5123)">
      <path
         d="m 0,0 c -0.06,-0.122 -0.149,-0.21 -0.269,-0.264 -0.119,-0.054 -0.392,-0.081 -0.818,-0.081 l -1.211,0 0,-1.651 7.339,0 0,1.651 -1.198,0 c -0.351,0 -0.591,0.03 -0.721,0.089 -0.13,0.06 -0.221,0.161 -0.271,0.303 C 2.816,0.125 2.799,0.366 2.799,0.769 l 0,9.313 -0.835,0 C 1.668,9.941 1.35,9.818 1.01,9.717 0.397,9.529 -0.183,9.382 -0.729,9.273 -1.092,9.2 -1.615,9.129 -2.298,9.061 l 0,-1.651 2.387,0 0,-6.641 C 0.089,0.377 0.059,0.122 0,0"
         style="fill:#ffffff;fill-opacity:1;fill-rule:nonzero;stroke:none"
         id="path3558" />
    </g>
    <g
       style="fill:#ffffff"
       id="g3560"
       transform="translate(740.8824,531.351)">
      <path
         d="m 0,0 c -0.176,-0.346 -0.423,-0.61 -0.741,-0.791 -0.319,-0.182 -0.685,-0.272 -1.1,-0.272 -0.592,0 -1.079,0.202 -1.462,0.609 -0.383,0.405 -0.575,0.942 -0.575,1.612 0,0.665 0.198,1.2 0.592,1.608 0.395,0.409 0.894,0.614 1.496,0.614 0.591,0 1.081,-0.205 1.471,-0.614 C 0.069,2.358 0.264,1.831 0.264,1.184 0.264,0.741 0.176,0.346 0,0 M -1.349,-4.391 C -1.783,-4.676 -2.323,-4.899 -2.97,-5.06 -3.616,-5.222 -4.484,-5.326 -5.574,-5.37 l 0,-1.669 c 1.754,0.005 3.135,0.157 4.142,0.455 1.008,0.298 1.885,0.76 2.631,1.387 0.747,0.627 1.296,1.35 1.648,2.166 0.351,0.818 0.527,1.806 0.527,2.963 0,1.719 -0.52,3.071 -1.559,4.052 -0.887,0.84 -2.116,1.26 -3.691,1.26 -1.527,0 -2.737,-0.408 -3.629,-1.225 -0.892,-0.816 -1.338,-1.856 -1.338,-3.12 0,-0.765 0.17,-1.435 0.511,-2.012 0.341,-0.575 0.839,-1.034 1.496,-1.377 0.656,-0.343 1.398,-0.514 2.227,-0.514 0.518,0 1.001,0.072 1.449,0.217 0.45,0.145 0.924,0.393 1.424,0.745 -0.108,-0.505 -0.295,-0.952 -0.562,-1.342 -0.266,-0.388 -0.617,-0.724 -1.051,-1.007"
         style="fill:#ffffff;fill-opacity:1;fill-rule:nonzero;stroke:none"
         id="path3562" />
    </g>
    <g
       style="fill:#ffffff"
       id="g3564"
       transform="translate(750.5814,529.955)">
      <path
         d="M 0,0 -3.537,0 0,3.695 0,0 Z m -0.005,6.436 -5.603,-5.942 0,-2.655 5.608,0 0,-3.278 2.71,0 0,3.278 2.242,0 0,2.161 -2.242,0 0,6.436 -2.715,0 z"
         style="fill:#ffffff;fill-opacity:1;fill-rule:nonzero;stroke:none"
         id="path3566" />
    </g>
    <g
       style="fill:#ffffff"
       id="g3568"
       transform="translate(762.7516,531.351)">
      <path
         d="m 0,0 c -0.176,-0.346 -0.423,-0.61 -0.741,-0.791 -0.319,-0.182 -0.685,-0.272 -1.1,-0.272 -0.59,0 -1.077,0.202 -1.461,0.609 -0.383,0.405 -0.575,0.942 -0.575,1.612 0,0.665 0.197,1.2 0.592,1.608 0.394,0.409 0.893,0.614 1.496,0.614 0.591,0 1.08,-0.205 1.47,-0.614 C 0.07,2.358 0.264,1.831 0.264,1.184 0.264,0.741 0.176,0.346 0,0 M -1.348,-4.391 C -1.782,-4.676 -2.323,-4.899 -2.969,-5.06 -3.616,-5.222 -4.484,-5.326 -5.573,-5.37 l 0,-1.669 c 1.754,0.005 3.134,0.157 4.142,0.455 1.008,0.298 1.884,0.76 2.63,1.387 0.748,0.627 1.296,1.35 1.648,2.166 0.352,0.818 0.528,1.806 0.528,2.963 0,1.719 -0.519,3.071 -1.56,4.052 -0.886,0.84 -2.116,1.26 -3.689,1.26 -1.529,0 -2.739,-0.408 -3.631,-1.225 -0.892,-0.816 -1.338,-1.856 -1.338,-3.12 0,-0.765 0.171,-1.435 0.511,-2.012 0.341,-0.575 0.84,-1.034 1.496,-1.377 0.657,-0.343 1.399,-0.514 2.229,-0.514 0.517,0 0.999,0.072 1.449,0.217 0.448,0.145 0.923,0.393 1.422,0.745 -0.107,-0.505 -0.294,-0.952 -0.561,-1.342 -0.267,-0.388 -0.617,-0.724 -1.051,-1.007"
         style="fill:#ffffff;fill-opacity:1;fill-rule:nonzero;stroke:none"
         id="path3570" />
    </g>
    <g
       style="fill:#ffffff"
       id="g3572"
       transform="translate(797.0779,537.4724)">
      <path
         d="m 0,0 -6.502,0 c -9.991,-10.697 -24.33,-21.399 -44.922,-29.732 -20.592,8.333 -34.931,19.035 -44.922,29.732 l -6.502,0 C -92.292,-12.999 -76.14,-26.474 -51.424,-36.648 -26.708,-26.474 -10.556,-12.999 0,0"
         style="fill:#ffffff;fill-opacity:1;fill-rule:nonzero;stroke:none"
         id="path3574" />
    </g>
    <g
       style="fill:#ffffff"
       id="g3576"
       transform="translate(674.845,577.5264)">
      <path
         d="M 0,0 3.818,0 C 3.22,2.895 3.1,4.574 3.1,4.574 L -3.146,65.12 C 8.096,75.925 24.58,83.398 44.017,86.935 l 0,4.259 C 22.983,87.52 5.138,79.429 -6.946,67.616 L -0.379,2.867 C -0.379,2.867 -0.307,1.84 0,0"
         style="fill:#ffffff;fill-opacity:1;fill-rule:nonzero;stroke:none"
         id="path3578" />
    </g>
    <g
       style="fill:#ffffff"
       id="g3580"
       transform="translate(813.3622,582.1)">
      <path
         d="m 0,0 c 0,0 -0.12,-1.679 -0.718,-4.574 l 3.818,0 c 0.307,1.841 0.379,2.868 0.379,2.868 l 6.568,64.748 C -2.16,74.975 -20.242,83.113 -41.555,86.734 l 0,-4.259 C -21.841,78.987 -5.118,71.469 6.247,60.547 L 0,0 Z"
         style="fill:#ffffff;fill-opacity:1;fill-rule:nonzero;stroke:none"
         id="path3582" />
    </g>
    <g
       style="fill:#ffffff"
       id="g3584"
       transform="translate(823.403,577.5264)">
      <path
         d="M 0,0 0,37.138 -3.619,1.46 c 0,0 -0.037,-0.516 -0.165,-1.46 L 0,0 Z"
         style="fill:#ffffff;fill-opacity:1;fill-rule:nonzero;stroke:none"
         id="path3586" />
    </g>
    <g
       style="fill:#ffffff"
       id="g3588"
       transform="translate(807.6093,537.4724)">
      <path
         d="M 0,0 -5.928,0 C -15.892,-12.94 -31.302,-26.562 -55.116,-37.083 -27.452,-26.24 -10.474,-12.661 0,0"
         style="fill:#ffffff;fill-opacity:1;fill-rule:nonzero;stroke:none"
         id="path3590" />
    </g>
    <g
       style="fill:#ffffff"
       id="g3592"
       transform="translate(670.9583,579.2191)">
      <path
         d="m 0,0 -3.619,35.678 0,-37.371 3.816,0 C 0.042,-0.596 0,0 0,0"
         style="fill:#ffffff;fill-opacity:1;fill-rule:nonzero;stroke:none"
         id="path3594" />
    </g>
    <g
       style="fill:#ffffff"
       id="g3596"
       transform="translate(689.2432,537.4724)">
      <path
         d="M 0,0 -5.915,0 C 4.574,-12.595 21.51,-26.074 49.005,-36.85 25.334,-26.392 9.969,-12.871 0,0"
         style="fill:#ffffff;fill-opacity:1;fill-rule:nonzero;stroke:none"
         id="path3598" />
    </g>
    <g
       style="fill:#ffffff"
       id="g3600"
       transform="translate(761.2786,666.6578)">
      <path
         d="m 0,0 c -0.805,-0.69 -1.805,-1.034 -3,-1.034 -0.555,0 -1.065,0.071 -1.53,0.213 -0.465,0.142 -0.95,0.381 -1.455,0.715 l -0.33,-0.749 -1.118,0 -0.741,4.053 1.402,0.336 c 0.33,-0.823 0.844,-1.511 1.54,-2.063 0.698,-0.552 1.465,-0.827 2.299,-0.827 0.375,0 0.687,0.047 0.934,0.142 0.248,0.094 0.434,0.227 0.559,0.397 0.125,0.17 0.188,0.344 0.188,0.524 0,0.299 -0.145,0.557 -0.436,0.771 -0.295,0.215 -0.81,0.427 -1.545,0.637 l -1.748,0.509 c -0.265,0.074 -0.623,0.215 -1.076,0.423 -0.452,0.207 -0.8,0.423 -1.042,0.648 -0.242,0.224 -0.443,0.513 -0.604,0.865 -0.159,0.353 -0.24,0.723 -0.24,1.112 0,0.555 0.155,1.066 0.462,1.532 0.307,0.468 0.77,0.847 1.387,1.136 0.618,0.289 1.301,0.435 2.052,0.435 0.904,0 1.722,-0.235 2.452,-0.705 l 0.293,0.524 1.072,0 0.9,-3.505 -1.403,-0.397 c -0.464,0.837 -0.991,1.449 -1.579,1.837 -0.59,0.388 -1.216,0.583 -1.88,0.583 -0.43,0 -0.767,-0.089 -1.014,-0.263 -0.248,-0.175 -0.372,-0.37 -0.372,-0.585 0,-0.245 0.114,-0.472 0.338,-0.682 0.22,-0.21 0.625,-0.398 1.215,-0.562 L -2.009,5.434 C -0.896,5.115 -0.1,4.69 0.375,4.16 0.845,3.626 1.08,3.003 1.08,2.294 1.08,1.389 0.72,0.624 0,0 m -8.737,-0.855 -5.28,0 0,1.446 0.211,0 c 0.385,0 0.618,0.018 0.7,0.053 0.084,0.035 0.125,0.079 0.125,0.134 0,0.06 -0.078,0.202 -0.233,0.427 l -1.841,2.621 -1.586,-1.372 0,-1.051 c 0,-0.258 0.025,-0.437 0.075,-0.536 0.05,-0.1 0.121,-0.17 0.214,-0.212 0.092,-0.043 0.279,-0.064 0.558,-0.064 l 0.428,0 0,-1.446 -5.107,0 0,1.446 0.384,0 c 0.297,0 0.496,0.024 0.596,0.071 0.101,0.047 0.173,0.124 0.219,0.229 0.04,0.084 0.06,0.289 0.06,0.613 l 0,5.708 c 0,0.31 -0.023,0.517 -0.067,0.622 -0.046,0.105 -0.118,0.183 -0.22,0.236 -0.1,0.052 -0.28,0.079 -0.542,0.079 l -0.43,0 0,1.445 5.107,0 0,-1.445 -0.337,0 c -0.326,0 -0.526,-0.017 -0.601,-0.052 -0.12,-0.055 -0.206,-0.133 -0.259,-0.233 -0.052,-0.1 -0.078,-0.288 -0.078,-0.563 l 0,-2.781 3.262,3.023 c 0.144,0.135 0.232,0.225 0.263,0.273 0.03,0.047 0.044,0.088 0.044,0.123 0,0.07 -0.029,0.123 -0.087,0.158 -0.056,0.035 -0.203,0.052 -0.437,0.052 l -0.421,0 0,1.445 4.733,0 0,-1.445 -0.157,0 c -0.221,0 -0.374,-0.011 -0.458,-0.034 -0.086,-0.022 -0.189,-0.071 -0.311,-0.146 -0.123,-0.074 -0.281,-0.197 -0.476,-0.367 l -2.529,-2.186 3.016,-4.068 c 0.26,-0.35 0.449,-0.557 0.57,-0.622 0.16,-0.091 0.389,-0.135 0.689,-0.135 l 0.203,0 0,-1.446 z m -12.801,4.112 -0.382,0 c -0.251,0 -0.422,-0.022 -0.515,-0.067 -0.091,-0.045 -0.16,-0.116 -0.206,-0.214 -0.044,-0.097 -0.067,-0.283 -0.067,-0.558 l 0,-3.273 -1.536,0 -0.398,0.749 c -0.469,-0.31 -0.956,-0.541 -1.461,-0.697 -0.505,-0.154 -1.029,-0.231 -1.573,-0.231 -0.955,0 -1.824,0.231 -2.608,0.696 -0.785,0.465 -1.406,1.113 -1.863,1.947 -0.457,0.834 -0.686,1.769 -0.686,2.802 0,1.023 0.227,1.941 0.679,2.749 0.452,0.809 1.084,1.447 1.896,1.915 0.811,0.466 1.693,0.7 2.641,0.7 0.461,0 0.919,-0.059 1.376,-0.176 0.456,-0.118 0.848,-0.274 1.173,-0.469 l 0.277,0.464 1.049,0 0.945,-3.459 -1.381,-0.45 c -0.47,0.758 -0.841,1.275 -1.114,1.55 -0.272,0.275 -0.584,0.49 -0.937,0.644 -0.352,0.155 -0.696,0.233 -1.031,0.233 -0.475,0 -0.919,-0.138 -1.331,-0.413 -0.413,-0.275 -0.739,-0.675 -0.979,-1.202 -0.24,-0.526 -0.36,-1.164 -0.36,-1.914 0,-0.823 0.131,-1.538 0.394,-2.142 0.262,-0.604 0.606,-1.052 1.031,-1.344 0.425,-0.293 0.892,-0.439 1.403,-0.439 0.359,0 0.7,0.073 1.023,0.217 0.322,0.145 0.544,0.308 0.663,0.487 0.121,0.18 0.181,0.422 0.181,0.727 l 0,0.382 c 0,0.264 -0.018,0.432 -0.053,0.502 -0.055,0.1 -0.129,0.172 -0.22,0.217 -0.093,0.045 -0.274,0.067 -0.544,0.067 l -0.593,0 0,1.461 5.107,0 0,-1.461 z M 7.304,13.955 c -7.325,1.073 -15.002,1.627 -22.934,1.627 -8.241,0 -16.207,-0.596 -23.787,-1.752 l 0,-20.562 46.721,0 0,20.687 z"
         style="fill:#ffffff;fill-opacity:1;fill-rule:nonzero;stroke:none"
         id="path3602" />
    </g>
    <g
       style="fill:#ffffff"
       id="g3604"
       transform="translate(771.8073,679.7522)">
      <path
         d="m 0,0 0,-6.655 c 16.783,-3.37 31.531,-9.75 42.926,-17.985 C 31.531,-12.675 16.783,-4.296 0,0"
         style="fill:#ffffff;fill-opacity:1;fill-rule:nonzero;stroke:none"
         id="path3606" />
    </g>
    <g
       style="fill:#ffffff"
       id="g3608"
       transform="translate(718.862,679.629)">
      <path
         d="M 0,0 C -16.235,-4.393 -30.506,-12.648 -41.601,-24.298 -30.506,-16.28 -16.235,-10.017 0,-6.581 L 0,0 Z"
         style="fill:#ffffff;fill-opacity:1;fill-rule:nonzero;stroke:none"
         id="path3610" />
    </g>
    <g
       style="fill:#ffffff"
       id="g3612"
       transform="translate(679.2181,537.4724)">
      <path
         d="m 0,0 -11.319,0 c 0,0 7.056,-8.616 24.998,-12.956 C 7.794,-8.666 3.354,-4.242 0,0"
         style="fill:#ffffff;fill-opacity:1;fill-rule:nonzero;stroke:none"
         id="path3614" />
    </g>
    <g
       style="fill:#ffffff"
       id="g3616"
       transform="translate(798.2311,524.5168)">
      <path
         d="m 0,0 c 17.942,4.34 24.998,12.956 24.998,12.956 l -11.319,0 C 10.325,8.714 5.885,4.29 0,0"
         style="fill:#ffffff;fill-opacity:1;fill-rule:nonzero;stroke:none"
         id="path3618" />
    </g>
    <g
       style="fill:#ffffff"
       id="g3620"
       transform="translate(807.1227,607.2988)">
      <path
         d="m 0,0 c -0.661,1.59 -2.033,3.041 -3.996,3.179 -2.537,0.138 -4.535,-1.106 -6.099,-3.041 -0.886,-1.244 -1.059,-2.522 -1.598,-4.128 -1.877,6.806 -8.983,13.129 -10.026,19.884 -0.347,2.626 -0.26,4.18 0.487,5.545 0.712,1.262 1.616,1.779 3.058,1.779 1.842,0 3.231,-1.122 4.118,-2.591 0.573,-1.278 0.764,-2.038 0.625,-4.077 1.286,1.503 1.164,3.594 0.713,5.407 -0.261,1.296 -1.373,2.281 -2.624,2.557 -0.73,0.225 -1.772,0.173 -1.772,0.173 0.208,0.432 0.816,0.536 1.407,0.622 2.45,0 4.761,-0.76 6.098,-3.006 0.713,-1.157 0.991,-2.522 1.304,-3.852 1.233,2.522 1.146,5.873 -0.504,8.136 -1.06,1.244 -2.259,2.16 -3.823,2.212 3.023,0.708 6.707,-1.02 7.837,-2.522 1.164,-1.538 1.111,-2.385 1.111,-2.385 0.661,2.125 -0.052,4.457 -1.424,6.185 -1.651,1.589 -3.701,2.177 -5.925,2.263 2.015,1.14 4.691,1.382 5.682,3.766 l 0.225,0.501 c -5.247,-1.33 -11.415,-1.399 -15.029,-6.651 0.156,1.071 -0.104,1.693 -0.73,2.436 -0.885,0.967 -1.633,1.52 -3.127,1.365 1.007,-0.622 2.207,-1.763 2.015,-3.11 -0.73,-4.647 -3.579,-6.063 -2.276,-13.578 1.512,-8.275 7.02,-14.823 9.557,-22.649 0.972,-4.284 1.372,-10.089 -2.902,-12.922 -1.703,-1.33 -4.344,-1.278 -5.734,-0.605 -3.823,1.901 -7.21,6.202 -10.998,8.103 -2.433,-0.83 -3.736,-0.674 -5.108,-0.38 -0.921,0.155 -1.755,0.241 -2.902,1.295 0.886,-2.073 2.988,-3.68 5.039,-4.25 -0.626,-1.589 -2.224,-2.505 -3.649,-2.695 -2.398,-0.397 -4.848,0.225 -6.411,2.385 -0.626,-2.644 -0.904,-5.2 -3.91,-7.481 1.547,-0.145 3.199,-0.107 4.864,-0.07 2.555,-0.089 5.103,0.073 7.377,-0.483 1.643,-0.432 3.124,-1.209 4.308,-2.579 l 10e-4,0 c 0.061,-0.071 0.121,-0.146 0.182,-0.219 1.112,-1.32 0.231,-4.208 0.231,-4.208 l 16.91,0 c 0.096,2.627 -0.721,4.052 -1.312,5.003 l -2.085,2.867 c 1.112,-0.242 1.581,-0.225 2.571,-0.173 4.987,0.45 7.663,9.554 12.962,4.164 0.487,0.881 0.661,2.125 0.348,3.179 -0.261,0.794 -0.887,1.572 -1.772,1.9 -1.634,0.691 -4.101,-0.709 -5.613,-2.246 2.589,4.768 0.365,14.235 7.698,14.321 1.024,0 2.31,-0.518 2.901,-1.71 0.347,-0.984 0.33,-1.209 0.313,-2.574 C 0.313,-3.852 0.313,-1.814 0,0"
         style="fill:#ffffff;fill-opacity:1;fill-rule:nonzero;stroke:none"
         id="path3622" />
    </g>
    <g
       style="fill:#ffffff"
       id="g3624"
       transform="translate(687.4758,617.579)">
      <path
         d="M 0,0 C 0.441,1.925 2.452,3.509 3.825,4.046 3.678,4.802 3.261,6.093 2.133,6.166 0.516,4.655 -0.735,2.242 0,0"
         style="fill:#ffffff;fill-opacity:1;fill-rule:nonzero;stroke:none"
         id="path3626" />
    </g>
    <g
       style="fill:#ffffff"
       id="g3628"
       transform="translate(697.798,619.0684)">
      <path
         d="m 0,0 c -1.654,-0.386 -2.43,-1.774 -2.843,-3.29 1.524,1.182 3.36,1.902 5.247,1.645 -0.077,0.591 -0.259,0.951 0,1.902 C 1.447,0.231 1.009,0.514 0,0"
         style="fill:#ffffff;fill-opacity:1;fill-rule:nonzero;stroke:none"
         id="path3630" />
    </g>
    <g
       style="fill:#ffffff"
       id="g3632"
       transform="translate(692.6732,635.9982)">
      <path
         d="M 0,0 -0.611,0.492 C -1.883,1.334 -4.849,1.662 -6.425,1.1 -3.836,0.398 -1.977,-0.609 -1.365,-2.223 -0.823,-1.615 0,-0.842 0,0"
         style="fill:#ffffff;fill-opacity:1;fill-rule:nonzero;stroke:none"
         id="path3634" />
    </g>
    <g
       style="fill:#ffffff"
       id="g3636"
       transform="translate(691.5631,594.5829)">
      <path
         d="M 0,0 C 0.125,0.699 0.393,1.666 0,2.303 L -0.703,2.385 C -2.027,2.426 -4.405,1.295 -5.315,0.165 -3.061,0.822 -1.2,0.946 0,0"
         style="fill:#ffffff;fill-opacity:1;fill-rule:nonzero;stroke:none"
         id="path3638" />
    </g>
    <g
       style="fill:#ffffff"
       id="g3640"
       transform="translate(703.4286,639.0047)">
      <path
         d="m 0,0 c 0.153,0.434 -0.285,1.631 -0.285,1.631 -0.7,1.37 -1.946,2.588 -3.456,2.762 1.138,-1.523 1.794,-2.827 1.51,-4.437 C -1.684,-0.326 -0.153,-0.435 0,0"
         style="fill:#ffffff;fill-opacity:1;fill-rule:nonzero;stroke:none"
         id="path3642" />
    </g>
    <g
       style="fill:#ffffff"
       id="g3644"
       transform="translate(697.3226,604.051)">
      <path
         d="M 0,0 C 0.653,0.045 2.025,0.783 1.935,1.253 1.823,1.7 0.788,2.505 0.788,2.505 -0.562,3.355 -2.339,3.735 -3.734,3.064 -1.912,2.349 -0.629,1.543 0,0"
         style="fill:#ffffff;fill-opacity:1;fill-rule:nonzero;stroke:none"
         id="path3646" />
    </g>
    <g
       style="fill:#ffffff"
       id="g3648"
       transform="translate(695.3428,585.3798)">
      <path
         d="M 0,0 C -0.564,-2.033 -0.353,-4.627 1.386,-6.075 0.775,-4.299 1.598,-1.986 2.444,-0.864 1.927,-0.327 0.939,0.514 0,0"
         style="fill:#ffffff;fill-opacity:1;fill-rule:nonzero;stroke:none"
         id="path3650" />
    </g>
    <g
       style="fill:#ffffff"
       id="g3652"
       transform="translate(748.6553,640.7449)">
      <path
         d="m 0,0 -1.72,0.31 c -0.4,-0.448 0,-1.019 0.434,-1.105 0.609,0 1.164,0.121 1.286,0.795"
         style="fill:#ffffff;fill-opacity:1;fill-rule:nonzero;stroke:none"
         id="path3654" />
    </g>
    <g
       style="fill:#ffffff"
       id="g3656"
       transform="translate(748.1516,585.67)">
      <path
         d="M 0,0 C 1.564,-0.847 3.492,-0.588 6.272,-0.57 5.63,0.933 4.882,3.455 4.257,5.632 3.544,3.939 2.641,1.814 0,0"
         style="fill:#ffffff;fill-opacity:1;fill-rule:nonzero;stroke:none"
         id="path3658" />
    </g>
    <g
       style="fill:#ffffff"
       id="g3660"
       transform="translate(724.9386,631.9857)">
      <path
         d="m 0,0 c -0.208,-0.57 -0.156,-1.244 -0.156,-1.244 -0.087,-1.727 0.849,-3.148 2.361,-4.081 3.909,-2.747 8.789,-0.579 13.219,1.097 2.081,0.788 4.47,0.376 6.069,-1.041 l -1.164,1.296 c -2.45,1.952 -6.307,1.053 -8.931,0.121 C 8.079,-4.716 5.213,-4.474 3.075,-2.574 1.425,-1.244 2.137,0.847 2.415,2.522 1.338,2.073 0.382,1.071 0,0"
         style="fill:#ffffff;fill-opacity:1;fill-rule:nonzero;stroke:none"
         id="path3662" />
    </g>
    <g
       style="fill:#ffffff"
       id="g3664"
       transform="translate(769.3493,620.031)">
      <path
         d="m 0,0 c -1.025,0.501 -2.137,1.296 -2.259,2.402 -1.251,4.958 0.626,10.036 -1.615,14.632 -0.349,0.397 -0.835,1.641 -1.6,0.985 -0.521,-0.311 -1.112,-0.795 -1.598,-0.675 1.077,2.005 2.624,3.94 1.79,6.549 -1.737,2.435 -5.352,0.984 -7.089,-0.795 -0.313,-0.398 -0.487,-1.106 -1.112,-1.106 -0.452,0.138 -0.313,0.674 -0.122,1.106 0,0 -5.977,1.071 -8.496,1.589 -1.443,0.104 -2.537,0.224 -3.388,-0.656 -0.052,-0.45 -0.244,-0.692 -0.14,-1.417 2.537,0.224 4.727,-0.449 6.864,-1.106 l 1.72,-0.898 1.025,-1.089 -0.799,0.225 -2.884,0.657 c -0.053,-0.847 -1.113,-1.555 -1.599,-1.952 -1.078,-0.398 -2.189,-0.035 -2.901,0.794 -0.366,0.726 -0.626,1.416 -0.174,2.091 -2.085,0.431 -4.275,-0.139 -6.412,-0.139 -0.851,-0.311 -4.63,0.16 -4.621,-0.345 0.025,-1.439 1.079,-2.409 1.908,-2.458 -0.713,0.042 -1.363,-1.047 -1.735,-2.777 -0.395,-1.84 0.365,-3.23 1.425,-4.457 2.311,1.728 5.021,2.522 8.183,2.384 1.912,-0.311 4.136,-1.641 4.64,-3.68 0.295,-1.226 0.224,-2.643 -0.504,-3.662 -1.784,-2.497 -6.323,-1.623 -9.884,-1.26 -0.122,-0.674 -0.197,-1.547 0.275,-2.54 0.35,-0.735 1.078,-1.331 1.912,-1.296 0.834,0 1.424,0.535 1.789,1.296 2.572,-0.363 4.796,-0.709 7.524,-0.312 1.859,0.433 4.048,2.298 4.656,4.285 1.217,3.23 -0.399,6.15 -2.397,8.448 2.223,-0.882 4.047,-3.369 4.413,-5.702 0.087,-2.263 -0.4,-3.783 -1.599,-5.459 -1.876,-2.919 -5.351,-3.869 -8.6,-3.351 -0.973,-0.328 -1.026,-2.021 -1.599,-3.006 -2.363,-4.958 -8.357,-2.522 -11.398,-6.547 -1.824,-1.728 -1.338,-3.473 -2.676,-5.425 -0.347,-0.259 -0.903,-1.192 -1.633,-0.95 0.296,0.19 0.348,0.466 0.487,0.812 0.851,2.868 1.164,6.582 4.639,8.258 -6.064,3.23 -12.684,4.923 -18.748,8.153 -4.17,2.419 -9.209,3.266 -12.632,7.153 -1.998,2.833 2.189,4.301 1.912,6.996 -0.017,1.434 -1.06,1.572 -2.12,1.624 -0.608,0.035 -1.233,0.691 -1.702,0.277 -1.373,-1.192 -0.088,-2.833 -0.487,-4.423 -0.331,-1.209 -1.077,-1.675 -2.276,-1.451 -1.599,-0.051 -1.651,3.473 -2.572,3.818 -1.824,0.345 -0.625,-1.469 -2.346,-1.987 -0.746,-0.224 -1.911,-0.691 -1.789,-2.142 0.052,-1.296 2.311,-1.019 3.683,-1.779 1.026,-0.432 1.251,-1.451 1.112,-2.523 -0.886,-2.608 -2.936,-1.105 -4.621,-1.105 -1.164,-0.311 -0.209,-1.417 0.799,-2.643 0.66,-0.829 0.608,-2.35 1.425,-2.488 1.859,0.087 2.762,2.522 4.795,2.263 1.286,-0.224 2.381,-0.501 2.902,-1.779 0.938,-1.59 -0.278,-3.404 0.799,-4.907 0.574,-0.587 1.685,-0.397 2.224,0.139 2.589,0.656 4.587,-0.933 6.411,-2.384 2.172,-2.177 4.709,-2.367 8.01,-3.024 -1.233,-0.777 -2.119,0.052 -3.336,-0.172 -1.963,-0.035 -2.78,-2.436 -3.701,-3.663 1.912,-0.898 2.676,0.83 4.188,1.451 1.911,0.76 3.944,0.225 5.612,-0.967 l -0.487,0.069 c -2.554,0.484 -3.666,-3.075 -5.924,-3.386 2.223,-1.503 4.221,0.484 6.046,1.416 0.939,0.45 1.668,0.363 2.346,0.26 0.868,-0.26 1.841,-1.089 2.015,-1.555 -2.05,0.138 -4.048,-1.831 -5.299,-3.213 3.179,1.209 8.67,-0.415 12.648,4.992 3.285,3.853 8.202,4.147 11.694,7.291 0,0 0.747,0.552 1.772,1.606 -1.859,-4.336 -6.48,-6.029 -10.094,-8.102 -3.91,-2.298 -3.476,-6.686 -5.473,-9.865 0.173,-0.051 2.015,0.225 3.075,0.795 3.823,3.144 4.934,8.137 9.296,10.797 1.876,1.901 2.971,2.696 4.169,4.82 0.348,0.398 0.956,1.244 0.956,1.244 -1.703,-4.837 -5.786,-8.188 -8.809,-12.438 -3.475,-2.712 -3.127,-9.692 -2.693,-12.059 2.815,1.521 3.197,3.507 3.979,6.047 0.539,2.522 2.085,4.682 3.648,6.807 3.111,3.23 3.736,7.48 5.595,11.142 0.417,-6.893 -5.247,-11.713 -7.645,-17.638 -0.59,-1.779 -1.198,-5.442 0,-7.964 4.188,1.624 3.562,7.618 4.622,9.864 2.189,5.079 5.264,9.865 5.612,15.738 2.311,-8.05 -5.491,-13.06 -5.213,-20.713 -0.052,-2.177 0.192,-4.267 0.904,-5.995 0.712,1.054 2.067,1.486 2.711,3.006 0.191,0.449 0.503,1.313 0.486,2.695 0.087,6.911 3.51,12.611 3.996,19.107 0.191,0.795 0.157,0.985 0.14,2.263 1.563,-5.615 -0.539,-10.936 -1.912,-15.928 -0.852,-4.388 0.087,-8.413 1.912,-11.817 1.563,0.985 2.675,3.628 2.588,4.474 0.156,2.419 0.226,3.059 0.226,4.544 -0.765,6.444 0.521,12.18 -0.33,18.192 0,0 -0.174,0.846 -0.209,1.64 3.875,-7.169 -1.338,-17.516 4.483,-23.892 1.39,-1.157 3.701,-0.621 5.126,0.139 -1.964,0.57 -3.492,3.265 -4.257,4.975 -1.738,6.599 0.295,14.183 -3.128,20.057 l 0.33,-0.311 c 0.626,-0.932 1.078,-1.537 1.651,-2.557 3.162,-5.044 -0.677,-14.908 5.23,-16.722 1.772,-1.071 3.91,-0.19 5.595,0.483 -2.137,0.45 -4.135,1.987 -5.421,3.974 -2.363,5.493 -1.077,11.851 -5.126,16.636 l -0.347,0.536 c 3.649,-3.093 4.76,-7.515 5.612,-11.938 0.434,-1.814 0.608,-3.904 2.571,-4.924 1.79,-0.483 3.614,0.052 4.622,1.417 -3.336,0.277 -5.108,3.991 -5.907,6.686 0.955,-0.415 1.615,-0.501 2.241,-0.276 -0.539,0.172 -1.598,1.969 -2.05,3.178 -1.303,3.041 -1.477,4.855 -4.726,7.152 L -5.282,0.812 C -3.736,0.052 -1.859,-0.432 0,0"
         style="fill:#ffffff;fill-opacity:1;fill-rule:nonzero;stroke:none"
         id="path3666" />
    </g>
    <g
       style="fill:#ffffff"
       id="g3668"
       transform="translate(743.7904,587.6566)">
      <path
         d="M 0,0 C 0.678,-0.605 1.737,-1.365 3.058,-1.71 2.711,-0.345 2.311,2.402 2.328,2.246 L 0,0 Z"
         style="fill:#ffffff;fill-opacity:1;fill-rule:nonzero;stroke:none"
         id="path3670" />
    </g>
    <g
       style="fill:#ffffff"
       id="g3672"
       transform="translate(705.262,585.9893)">
      <path
         d="m 0,0 c -1.01,-1.003 -0.946,-2.328 -0.559,-3.567 0.537,1.495 1.525,2.819 2.965,3.439 C 2.084,0.278 1.804,0.449 1.568,1.218 0.902,0.791 0.451,0.812 0,0"
         style="fill:#ffffff;fill-opacity:1;fill-rule:nonzero;stroke:none"
         id="path3674" />
    </g>
    <g
       style="fill:#ffffff"
       id="g3676"
       transform="translate(733.3133,582.0247)">
      <path
         d="M 0,0 C 2.611,0.576 5.919,2.534 7.687,5.937 6.962,6.808 6.535,8.341 6.325,9.571 5.143,7.515 2.328,6.893 2.328,6.893 c 0,0 -1.65,5.805 -0.417,8.517 -1.511,-1.503 -4.5,-1.106 -6.724,-1.589 l -0.278,-0.035 c 0.566,0.727 0.93,1.564 1.218,2.443 -3.746,-0.69 -7.484,-1.441 -11.33,-1.683 -4.847,-0.138 -9.557,-2.056 -14.543,-0.553 -3.197,1.348 -0.417,4.786 -2.085,6.945 -0.782,1.192 -1.72,0.761 -2.658,0.259 -0.556,-0.293 -1.425,-0.051 -1.599,-0.656 -0.539,-1.745 1.425,-2.453 1.929,-4.008 0.382,-1.209 -0.017,-1.987 -1.147,-2.436 -1.338,-0.881 -3.266,2.091 -4.222,1.9 -1.737,-0.673 0.26,-1.589 -0.921,-2.919 -0.521,-0.588 -1.268,-1.589 -0.4,-2.782 0.73,-1.071 2.503,0.363 4.084,0.45 1.094,0.155 1.824,-0.588 2.276,-1.555 0.643,-2.695 -1.894,-2.488 -3.336,-3.369 -0.817,-0.898 0.59,-1.313 2.085,-1.848 1.008,-0.346 1.772,-1.659 2.536,-1.348 1.529,1.054 0.991,3.593 2.867,4.44 1.217,0.484 2.294,0.812 3.406,0.017 1.634,-0.864 1.581,-3.04 3.284,-3.749 0.799,-0.207 1.65,0.553 1.824,1.279 1.842,1.917 4.379,1.623 6.707,1.33 3.006,-0.691 5.264,0.483 8.392,1.658 -0.626,-1.312 -1.807,-1.071 -2.728,-1.9 -1.65,-1.071 -1.077,-3.524 -1.181,-5.062 2.085,0.26 1.806,2.125 2.762,3.438 1.234,1.641 3.232,2.263 5.282,2.125 L -3.041,5.995 C -5.473,5.079 -4.5,1.468 -6.272,0.017 -3.579,-0.104 -2.641,2.574 -1.581,4.319 -1.025,5.2 -0.365,5.511 0.278,5.77 1.147,6.012 2.398,5.822 2.798,5.528 0.991,4.561 0.469,1.503 0,0"
         style="fill:#ffffff;fill-opacity:1;fill-rule:nonzero;stroke:none"
         id="path3678" />
    </g>
  </g>
</svg>
