<?xml version="1.0" encoding="UTF-8" standalone="no"?>
<!-- Created with Inkscape (http://www.inkscape.org/) -->

<svg
   xmlns:dc="http://purl.org/dc/elements/1.1/"
   xmlns:cc="http://creativecommons.org/ns#"
   xmlns:rdf="http://www.w3.org/1999/02/22-rdf-syntax-ns#"
   xmlns:svg="http://www.w3.org/2000/svg"
   xmlns="http://www.w3.org/2000/svg"
   version="1.1"
   width="216"
   height="146"
   viewBox="0 0 216 146"
   id="Capa_1"
   xml:space="preserve"><metadata
     id="metadata9"><rdf:RDF><cc:Work
         rdf:about=""><dc:format>image/svg+xml</dc:format><dc:type
           rdf:resource="http://purl.org/dc/dcmitype/StillImage" /><dc:title></dc:title></cc:Work></rdf:RDF></metadata><defs
     id="defs7" /><path
     d="m 172.201,33.241 c -5.051,2.173 -10.104,3.53 -15.153,4.075 5.703,-3.422 9.56,-8.256 11.57,-14.502 -5.216,3.095 -10.783,5.213 -16.703,6.354 -5.215,-5.54 -11.623,-8.311 -19.228,-8.311 -7.278,0 -13.483,2.566 -18.617,7.699 -5.133,5.133 -7.699,11.338 -7.699,18.616 0,1.955 0.217,3.965 0.652,6.029 C 96.268,52.658 86.179,49.956 76.755,45.095 67.331,40.233 59.333,33.756 52.761,25.663 c -2.39,4.073 -3.585,8.5 -3.585,13.28 0,4.508 1.059,8.691 3.178,12.547 2.118,3.856 4.97,6.979 8.555,9.369 -4.237,-0.163 -8.202,-1.277 -11.895,-3.341 v 0.326 c 0,6.355 1.996,11.935 5.988,16.743 3.992,4.808 9.03,7.835 15.113,9.084 -2.281,0.597 -4.59,0.896 -6.925,0.896 -1.521,0 -3.178,-0.136 -4.97,-0.406 1.684,5.268 4.78,9.599 9.288,12.994 4.508,3.396 9.614,5.146 15.317,5.256 -9.559,7.494 -20.449,11.242 -32.67,11.242 -2.336,0 -4.454,-0.107 -6.355,-0.325 12.221,7.875 25.691,11.812 40.411,11.812 9.342,0 18.114,-1.479 26.314,-4.439 8.203,-2.96 15.209,-6.925 21.021,-11.896 5.811,-4.969 10.822,-10.686 15.031,-17.15 4.209,-6.463 7.345,-13.211 9.41,-20.245 2.064,-7.035 3.096,-14.081 3.096,-21.143 0,-1.521 -0.027,-2.661 -0.082,-3.422 5.161,-3.746 9.561,-8.282 13.2,-13.604 z"
     id="path3"
     style="fill:#2f98ea;fill-opacity:1;stroke:none" /><path
     d="m 77.831405,124.67489 c -7.351419,-0.59793 -14.788569,-2.34671 -21.252751,-4.99741 -3.249148,-1.33235 -10.505489,-5.02222 -11.193281,-5.69181 -0.174339,-0.16973 1.888404,-0.30961 4.641322,-0.31474 11.962747,-0.0223 21.606189,-3.02638 30.813647,-9.59893 l 2.346435,-1.67495 -2.856198,-0.41078 c -1.57091,-0.22592 -3.552189,-0.60028 -4.402843,-0.83191 -4.3037,-1.17184 -9.63209,-4.728864 -12.75467,-8.514512 -1.71042,-2.073621 -4.442487,-6.878625 -4.442487,-7.813191 0,-0.233351 0.988535,-0.302589 2.727156,-0.191008 2.802544,0.179854 8.697637,-0.493559 8.697637,-0.993554 0,-0.154174 -0.602479,-0.391435 -1.338843,-0.527247 C 61.41215,81.7492 53.091552,74.054073 50.565044,66.235351 c -0.74483,-2.305005 -1.691001,-7.846916 -1.390935,-8.146981 0.09353,-0.09353 1.036869,0.232338 2.096316,0.724139 2.562585,1.189568 9.804019,2.706784 9.53659,1.998097 -0.06204,-0.164406 -1.018589,-1.033815 -2.125663,-1.932018 -3.917156,-3.178112 -7.626838,-9.29522 -8.692438,-14.333464 -1.12662,-5.326748 -0.443175,-11.668095 1.781186,-16.52674 l 0.894,-1.952754 3.769803,3.961988 c 9.976179,10.484766 22.184305,17.639203 36.092964,21.151879 4.020645,1.015427 11.050203,2.112734 13.534583,2.112734 1.1792,0 1.22504,-0.04671 0.96353,-0.981818 -0.15101,-0.54 -0.25882,-3.070413 -0.23958,-5.62314 0.0298,-3.954152 0.17003,-5.052465 0.94708,-7.41828 2.85679,-8.697798 10.51768,-15.767775 19.04258,-17.573769 3.15768,-0.668952 8.5481,-0.669571 11.75056,-0.0013 3.48866,0.72794 8.45601,3.270009 11.13969,5.7008 l 2.21407,2.005431 2.24874,-0.566876 c 4.70986,-1.187291 8.34331,-2.608283 13.95146,-5.456218 0.46463,-0.23595 -1.36741,3.636423 -2.72292,5.75543 -1.47591,2.307225 -4.87915,5.734252 -6.97386,7.0226 -0.79816,0.490909 -1.45552,1.002957 -1.4608,1.137884 -0.0217,0.555504 7.71656,-1.07759 11.39718,-2.405266 1.41912,-0.511905 2.65558,-0.855376 2.74769,-0.763269 0.49964,0.499642 -5.87337,7.435413 -9.81803,10.685009 -2.55049,2.101077 -2.6196,2.200124 -2.41737,3.464779 0.27373,1.711836 -0.35679,10.413455 -1.04916,14.47921 -2.93551,17.237786 -12.84655,34.437902 -26.39719,45.811012 -13.94316,11.70257 -33.90754,17.70843 -53.553715,16.11049 z"
     id="path3044"
     style="fill:#53a746;fill-opacity:1;stroke:none" /><path
     d="m 74.832397,124.19828 c -9.233708,-1.27336 -15.033889,-3.08485 -23.920661,-7.47078 -3.752608,-1.85204 -4.931299,-2.57767 -4.284298,-2.63749 0.490909,-0.0454 3.420595,-0.24603 6.510412,-0.44587 11.09963,-0.71788 17.97803,-2.95743 26.573855,-8.65223 l 3.867799,-2.56245 -1.249587,-0.26344 c -0.687272,-0.14489 -2.611448,-0.51803 -4.275946,-0.82921 -5.345685,-0.99936 -12.063737,-5.164126 -15.179741,-9.410462 -1.308072,-1.782578 -3.750924,-6.192909 -3.750924,-6.771928 0,-0.194932 2.128358,-0.426505 4.909091,-0.534127 4.833626,-0.187074 6.158677,-0.403384 6.158677,-1.005389 0,-0.167787 -0.68281,-0.486935 -1.517355,-0.709219 C 59.714418,80.519346 52.08849,72.499012 50.064856,63.334386 c -0.319671,-1.447722 -0.58122,-3.155689 -0.58122,-3.795485 l 0,-1.163258 2.945455,1.012733 c 3.179903,1.093346 7.980473,2.01925 8.382882,1.616841 0.136532,-0.13653 -0.752733,-1.139877 -1.976145,-2.22966 -2.739104,-2.439916 -4.948876,-5.490426 -6.835509,-9.43617 -1.751373,-3.662859 -2.202078,-5.844011 -2.177855,-10.539569 0.01954,-3.787445 0.796947,-7.678798 2.141139,-10.717568 l 0.718299,-1.623832 4.029278,4.045006 c 6.686174,6.712273 12.629807,11.116305 20.179981,14.952685 8.409138,4.272836 18.559132,7.170117 27.053389,7.722298 l 3.22786,0.209832 -0.14669,-4.70791 c -0.087,-2.793664 0.0252,-5.607647 0.2761,-6.920731 0.53609,-2.80582 3.06725,-8.031409 5.17419,-10.682103 3.38472,-4.258256 8.90262,-7.855821 13.8313,-9.017754 2.98779,-0.704369 9.8515,-0.706343 12.62528,-0.0036 3.16819,0.802632 7.79767,3.208741 10.36619,5.387677 1.24984,1.060281 2.57771,1.927782 2.95082,1.927782 1.28674,0 7.96088,-2.164854 11.5672,-3.751991 1.9888,-0.875271 3.68183,-1.525577 3.76228,-1.445124 0.0805,0.08045 -0.46577,1.322882 -1.21384,2.760953 -1.34069,2.57733 -5.39238,7.108446 -8.33518,9.321464 -0.68128,0.512333 -1.12578,1.04443 -0.98778,1.182436 0.35328,0.353274 6.23173,-0.823869 10.22612,-2.047746 1.84707,-0.565942 3.41697,-0.970324 3.48867,-0.898626 0.29602,0.29602 -5.37868,6.367218 -8.575,9.174157 l -3.43915,3.02018 -0.005,2.616246 c -0.0403,21.740306 -9.69495,43.139434 -26.06765,57.777741 -9.47842,8.47435 -21.85998,14.19256 -35.880989,16.57101 -5.515533,0.93563 -17.051523,1.2225 -21.957024,0.54601 l 0,0 z"
     id="path3814"
     style="fill:#53a746;fill-opacity:1" /></svg>